<?xml version="1.0" standalone="no"?>
<!DOCTYPE svg PUBLIC "-//W3C//DTD SVG 20010904//EN"
 "http://www.w3.org/TR/2001/REC-SVG-20010904/DTD/svg10.dtd">
<svg version="1.0" xmlns="http://www.w3.org/2000/svg"
 width="774.000000pt" height="182.000000pt" viewBox="0 0 774.000000 182.000000"
 preserveAspectRatio="xMidYMid meet">

<g transform="translate(0.000000,182.000000) scale(0.100000,-0.100000)"
fill="#000000" stroke="none">
<path d="M0 910 l0 -910 3870 0 3870 0 0 910 0 910 -3870 0 -3870 0 0 -910z
m1161 372 c30 -21 63 -54 74 -75 29 -53 75 -69 216 -77 8 0 25 -66 45 -168 17
-91 20 -377 4 -397 -6 -7 -28 -16 -48 -19 -53 -9 -285 -16 -278 -8 4 3 64 7
134 9 70 2 142 8 160 14 31 10 32 12 32 70 l0 59 -26 -10 c-14 -6 -69 -9 -122
-8 l-97 1 107 6 c67 4 112 11 120 19 8 8 13 40 13 90 0 72 -1 77 -22 80 -13 2
-66 43 -119 92 -53 49 -132 114 -176 146 -89 64 -111 66 -152 11 l-21 -28 72
-68 c40 -38 83 -91 100 -122 24 -47 28 -65 28 -141 0 -85 0 -87 25 -90 61 -8
-276 -23 -485 -22 -251 1 -351 14 -438 57 l-47 24 0 -37 c0 -76 63 -102 340
-139 36 -5 167 -8 293 -7 125 1 219 -1 210 -5 -29 -10 -481 -3 -578 9 -118 16
-215 46 -248 76 -32 30 -36 91 -9 146 21 43 53 60 117 60 104 1 175 17 196 44
11 14 30 26 43 26 12 0 30 6 41 13 11 8 47 22 80 32 33 10 67 24 76 31 8 8 19
14 23 14 16 0 86 66 86 82 0 9 4 20 10 23 5 3 19 25 30 48 61 127 97 177 125
177 6 0 36 -17 66 -38z m1038 -62 c41 -20 76 -58 87 -92 6 -22 -12 -41 -64
-69 -20 -11 -26 -9 -56 20 -29 28 -39 32 -77 29 -41 -3 -44 -5 -44 -32 0 -26
8 -33 95 -77 146 -74 191 -138 169 -238 -22 -101 -89 -154 -194 -154 -78 0
-144 29 -182 80 -31 40 -28 49 34 100 l41 34 21 -35 c41 -65 132 -67 139 -3 5
39 -11 54 -96 93 -88 40 -120 64 -149 112 -55 89 -3 210 104 242 52 15 132 11
172 -10z m1151 -2 c88 -45 108 -119 97 -365 -6 -150 -21 -186 -90 -222 -37
-19 -63 -24 -125 -24 -106 -1 -167 28 -200 93 -22 43 -23 53 -20 235 3 169 5
194 23 225 32 55 92 80 190 80 64 0 90 -5 125 -22z m2221 11 c41 -14 75 -43
97 -84 14 -25 17 -62 17 -220 0 -173 -2 -193 -21 -230 -31 -60 -92 -87 -192
-88 -106 -1 -167 28 -200 93 -22 43 -23 53 -20 235 3 220 11 243 88 283 50 25
171 31 231 11z m-2991 -119 l0 -120 70 0 70 0 0 120 0 120 65 0 65 0 -2 -307
-3 -308 -39 -3 c-22 -2 -50 -1 -63 2 -23 6 -23 9 -23 131 l0 125 -70 0 -70 0
0 -125 c0 -122 0 -125 -23 -131 -13 -3 -41 -4 -63 -2 l-39 3 -3 308 -2 307 65
0 65 0 0 -120z m1358 63 l-3 -58 -102 -3 -103 -3 0 -59 0 -59 83 -3 82 -3 3
-57 3 -58 -86 0 -85 0 0 -65 0 -64 103 -3 102 -3 0 -60 0 -60 -165 0 -165 0
-3 308 -2 307 170 0 171 0 -3 -57z m647 -108 c23 -88 45 -173 50 -190 7 -28
10 -22 41 70 40 116 40 129 14 215 -11 36 -20 66 -20 68 0 1 31 2 70 2 l69 0
10 -37 c6 -21 24 -101 41 -178 17 -76 32 -141 34 -142 1 -2 24 78 51 177 l48
180 64 0 c37 0 63 -4 63 -10 0 -23 -153 -586 -163 -598 -10 -13 -95 -17 -113
-4 -6 4 -23 55 -39 115 -15 59 -30 106 -31 104 -2 -2 -20 -48 -39 -102 -20
-55 -41 -105 -47 -112 -12 -15 -104 -18 -112 -4 -3 5 -40 136 -81 292 -42 156
-78 292 -81 302 -5 16 1 18 62 15 l67 -3 42 -160z m1555 146 c56 -30 74 -71
78 -181 5 -109 -9 -171 -44 -207 -13 -13 -24 -28 -24 -32 0 -5 16 -43 35 -85
20 -42 33 -81 30 -86 -3 -6 -33 -10 -66 -10 l-59 0 -40 86 c-30 66 -43 85 -57
82 -15 -3 -19 -17 -23 -83 l-5 -80 -60 0 -60 0 -3 308 -2 307 133 0 c110 0
138 -3 167 -19z m370 -226 l0 -244 103 -3 102 -3 0 -60 0 -60 -159 -3 c-108
-2 -163 1 -172 9 -11 9 -14 67 -14 304 0 160 3 295 7 298 3 4 35 7 70 7 l63 0
0 -245z m684 222 c69 -39 76 -65 76 -280 0 -217 -8 -245 -84 -288 -38 -22 -52
-24 -191 -24 l-150 0 -3 308 -2 307 157 0 c145 0 161 -2 197 -23z m-6104 -72
c0 -8 -4 -15 -10 -15 -5 0 -10 7 -10 15 0 8 5 15 10 15 6 0 10 -7 10 -15z
m-44 -52 c-10 -10 -19 5 -10 18 6 11 8 11 12 0 2 -7 1 -15 -2 -18z m111 -539
c-3 -3 -12 -4 -19 -1 -8 3 -5 6 6 6 11 1 17 -2 13 -5z"/>
<path d="M1068 1293 c-23 -28 -48 -71 -48 -83 0 -6 -9 -20 -19 -31 -25 -27
-36 -70 -20 -80 8 -4 26 10 50 41 68 87 119 110 165 75 31 -24 39 -17 13 11
-23 26 -106 84 -119 84 -4 0 -14 -8 -22 -17z"/>
<path d="M992 1045 c25 -35 29 -48 20 -57 -9 -9 -20 -4 -47 22 -19 18 -38 30
-42 27 -4 -4 -1 -13 5 -19 15 -15 16 -68 2 -68 -6 0 -18 9 -27 20 -25 29 -33
25 -33 -14 0 -43 -14 -53 -37 -26 -25 29 -43 25 -43 -10 0 -23 -5 -30 -19 -30
-11 0 -22 9 -26 19 -8 27 -33 16 -37 -17 -4 -33 -34 -42 -43 -13 -8 28 -35 15
-35 -16 0 -22 -4 -25 -25 -20 -16 3 -24 0 -22 -7 8 -24 59 -12 262 57 189 65
210 74 213 96 3 16 -8 35 -34 62 -52 54 -71 50 -32 -6z"/>
<path d="M495 830 c-27 -5 -76 -9 -108 -9 -42 -1 -57 -5 -55 -13 4 -12 14 -15
129 -36 30 -6 72 -22 93 -36 45 -30 70 -25 61 13 -8 33 -47 91 -60 90 -5 -1
-32 -5 -60 -9z"/>
<path d="M2058 1173 c7 -3 16 -2 19 1 4 3 -2 6 -13 5 -11 0 -14 -3 -6 -6z"/>
<path d="M2015 1160 c-3 -6 1 -7 9 -4 18 7 21 14 7 14 -6 0 -13 -4 -16 -10z"/>
<path d="M2057 959 c7 -7 15 -10 18 -7 3 3 -2 9 -12 12 -14 6 -15 5 -6 -5z"/>
<path d="M2155 914 c6 -5 26 -23 45 -39 l35 -30 -25 28 c-14 16 -34 33 -45 39
-11 6 -15 6 -10 2z"/>
<path d="M2241 794 c0 -11 3 -14 6 -6 3 7 2 16 -1 19 -3 4 -6 -2 -5 -13z"/>
<path d="M2068 673 c7 -3 16 -2 19 1 4 3 -2 6 -13 5 -11 0 -14 -3 -6 -6z"/>
<path d="M3218 1183 c6 -2 18 -2 25 0 6 3 1 5 -13 5 -14 0 -19 -2 -12 -5z"/>
<path d="M3311 1167 c2 -1 13 -9 24 -17 19 -14 19 -14 6 3 -7 9 -18 17 -24 17
-6 0 -8 -1 -6 -3z"/>
<path d="M3164 1089 c-16 -18 -20 -40 -22 -142 -4 -145 6 -190 47 -207 17 -7
43 -9 60 -5 54 12 61 33 61 192 0 130 -2 145 -20 163 -28 28 -100 28 -126 -1z"/>
<path d="M3178 673 c6 -2 18 -2 25 0 6 3 1 5 -13 5 -14 0 -19 -2 -12 -5z"/>
<path d="M3258 673 c6 -2 18 -2 25 0 6 3 1 5 -13 5 -14 0 -19 -2 -12 -5z"/>
<path d="M5468 1183 c7 -3 16 -2 19 1 4 3 -2 6 -13 5 -11 0 -14 -3 -6 -6z"/>
<path d="M5404 1089 c-17 -19 -19 -38 -19 -166 l0 -145 29 -25 c24 -20 36 -24
65 -19 64 10 71 29 71 192 0 131 -2 146 -20 164 -28 28 -100 28 -126 -1z"/>
<path d="M5418 673 c6 -2 18 -2 25 0 6 3 1 5 -13 5 -14 0 -19 -2 -12 -5z"/>
<path d="M5498 673 c6 -2 18 -2 25 0 6 3 1 5 -13 5 -14 0 -19 -2 -12 -5z"/>
<path d="M2514 925 c0 -137 2 -195 3 -128 2 67 2 179 0 250 -1 70 -3 16 -3
-122z"/>
<path d="M3723 1173 c32 -2 81 -2 110 0 29 2 3 3 -58 3 -60 0 -84 -1 -52 -3z"/>
<path d="M3660 929 c0 -5 5 -7 10 -4 6 3 10 8 10 11 0 2 -4 4 -10 4 -5 0 -10
-5 -10 -11z"/>
<path d="M3713 673 c31 -2 83 -2 115 0 31 2 5 3 -58 3 -63 0 -89 -1 -57 -3z"/>
<path d="M4780 1040 c0 -5 5 -10 11 -10 5 0 7 5 4 10 -3 6 -8 10 -11 10 -2 0
-4 -4 -4 -10z"/>
<path d="M4641 691 c-8 -5 -9 -11 -3 -15 5 -3 12 1 16 9 6 17 6 18 -13 6z"/>
<path d="M5948 1173 c23 -2 61 -2 85 0 23 2 4 4 -43 4 -47 0 -66 -2 -42 -4z"/>
<path d="M5975 1098 c-3 -8 -5 -55 -3 -104 l3 -89 40 2 c58 4 70 22 70 103 0
38 -4 73 -10 79 -5 5 -29 13 -52 17 -33 5 -44 3 -48 -8z"/>
<path d="M6493 673 c31 -2 83 -2 115 0 31 2 5 3 -58 3 -63 0 -89 -1 -57 -3z"/>
<path d="M6958 1173 c29 -2 74 -2 100 0 26 2 2 3 -53 3 -55 0 -76 -1 -47 -3z"/>
<path d="M6970 925 l0 -185 64 0 c58 0 67 3 85 26 19 24 21 40 21 164 0 130
-1 138 -23 158 -19 18 -35 22 -85 22 l-62 0 0 -185z"/>
<path d="M6953 673 c26 -2 68 -2 95 0 26 2 4 3 -48 3 -52 0 -74 -1 -47 -3z"/>
</g>
</svg>
