<?xml version="1.0" standalone="no"?>
<!DOCTYPE svg PUBLIC "-//W3C//DTD SVG 20010904//EN"
 "http://www.w3.org/TR/2001/REC-SVG-20010904/DTD/svg10.dtd">
<svg version="1.0" xmlns="http://www.w3.org/2000/svg"
 width="186.000000pt" height="150.000000pt" viewBox="0 0 186.000000 150.000000"
 preserveAspectRatio="xMidYMid meet">

<g transform="translate(0.000000,150.000000) scale(0.100000,-0.100000)"
fill="#000000" stroke="none">
<path d="M0 750 l0 -750 930 0 930 0 0 750 0 750 -930 0 -930 0 0 -750z m1262
427 c44 -31 69 -56 86 -90 21 -40 32 -49 81 -68 33 -12 83 -21 121 -22 l64 -2
18 -70 c35 -134 48 -247 47 -427 0 -189 0 -189 -54 -203 -58 -14 -93 -15 -540
-17 -384 -1 -469 1 -579 16 -173 24 -246 47 -296 95 -48 45 -50 70 -17 156 20
51 28 62 58 72 18 7 55 12 80 12 25 1 84 6 130 12 74 10 87 14 107 40 13 16
31 29 40 29 10 0 34 9 55 20 20 11 43 20 49 20 7 0 25 6 39 14 14 7 42 16 61
20 20 4 41 13 48 21 7 8 18 15 24 15 18 0 96 76 96 93 0 9 8 24 19 34 10 10
24 34 30 54 6 20 21 45 31 54 11 10 20 24 20 31 0 17 37 82 63 112 29 31 47
28 119 -21z"/>
<path d="M1154 1189 c-21 -23 -73 -110 -105 -178 -17 -36 -19 -45 -8 -52 21
-13 21 -13 69 47 88 110 133 128 204 79 44 -30 46 -18 4 30 -27 31 -120 95
-139 95 -3 0 -14 -9 -25 -21z"/>
<path d="M1132 1014 c-12 -8 -29 -29 -38 -45 l-15 -30 94 -92 c77 -76 98 -103
117 -152 24 -62 32 -160 18 -223 l-8 -32 143 6 c78 3 159 10 179 15 35 9 37
12 43 62 4 28 5 74 3 101 -3 47 -5 50 -36 58 -20 6 -69 44 -134 104 -122 116
-291 244 -321 244 -13 0 -33 -7 -45 -16z m48 -14 c0 -5 -7 -10 -15 -10 -8 0
-15 5 -15 10 0 6 7 10 15 10 8 0 15 -4 15 -10z m-50 -50 c0 -11 -4 -20 -10
-20 -5 0 -10 9 -10 20 0 11 5 20 10 20 6 0 10 -9 10 -20z"/>
<path d="M1059 893 c23 -31 41 -60 41 -65 0 -4 -11 -8 -24 -8 -16 0 -35 13
-54 36 -30 36 -53 33 -32 -5 15 -29 13 -71 -4 -71 -8 0 -23 12 -34 27 -24 33
-46 23 -37 -18 4 -19 2 -36 -6 -45 -12 -14 -16 -13 -35 11 -16 20 -27 25 -42
21 -17 -6 -20 -13 -16 -35 9 -41 -14 -51 -41 -17 -27 34 -55 26 -55 -15 0 -47
-37 -50 -53 -5 -1 5 -13 5 -25 2 -12 -4 -20 -12 -16 -17 9 -15 -6 -49 -21 -49
-8 0 -19 8 -25 18 -9 15 -10 14 -8 -8 2 -19 10 -26 29 -28 31 -4 506 154 532
176 31 27 21 57 -39 106 -31 25 -61 46 -66 46 -5 0 9 -25 31 -57z"/>
<path d="M420 628 c-47 -5 -101 -11 -120 -14 -32 -5 -33 -7 -16 -19 10 -8 39
-17 65 -20 101 -12 151 -27 187 -56 85 -68 110 -15 41 88 -24 36 -20 36 -157
21z"/>
<path d="M186 493 c-34 -89 61 -148 299 -185 117 -18 174 -20 560 -19 450 1
539 5 593 22 l32 11 0 70 c0 63 -2 69 -17 63 -10 -4 -92 -11 -183 -16 -91 -5
-262 -16 -380 -24 -252 -18 -344 -19 -500 -5 -168 15 -278 38 -342 70 -47 23
-58 25 -62 13z"/>
</g>
</svg>
